Patient4_TMGait_0pt6_02_right_11_GRF.mot
version=1
nRows=32
nColumns=19
inDegrees=no
endheader
time	F1x	F1y	F1z	M1x	M1y	M1z	F2x	F2y	F2z	M2x	M2y	M2z	EC1x	EC1y	EC1z	EC2x	EC2y	EC2z
12.93	-3.4998	751.2507	56.5029	-239.7507	-50.99	717.9689	-12.0036	7.6346	-4.564	4.0591	6.1387	14.1248	-0.0592	0.0182	-0.0073	-0.0462	0.0165	0.9585
12.9421	-4.8206	751.8847	56.3828	-240.2037	-51.0313	715.4737	-8.084	6.4332	-3.1304	3.3292	4.2058	10.8581	-0.0592	0.0182	-0.0073	-0.0462	0.0165	0.9585
12.9541	-5.6348	752.0261	55.8233	-240.4746	-50.4753	711.902	-4.8014	5.4843	-1.8852	2.7201	2.5609	8.1695	-0.0592	0.0182	-0.0073	-0.0462	0.0165	0.9585
12.9662	-5.8188	751.3599	54.7766	-240.4641	-49.2588	707.0591	-2.311	4.8131	-0.91464	2.2672	1.3002	6.1743	-0.0592	0.0182	-0.0073	-0.0462	0.0165	0.9585
12.9783	-5.351	749.7683	53.2658	-240.1454	-47.4063	700.9462	-0.61136	4.4137	-0.23067	1.9712	0.42947	4.8753	-0.0592	0.0182	-0.0073	-0.0462	0.0165	0.9585
12.9904	-4.2759	747.3843	51.3995	-239.5698	-45.0324	693.8017	0.43019	4.2135	0.20547	1.8014	-0.11216	4.1217	-0.0592	0.0182	-0.0073	-0.0462	0.0165	0.9585
13.0024	-2.6408	744.5735	49.3269	-238.856	-42.2855	686.0529	0.95525	4.1394	0.43955	1.7172	-0.38828	3.7611	-0.0592	0.0182	-0.0073	-0.0462	0.0165	0.9585
13.0145	-0.48646	741.7969	47.2365	-238.1485	-39.3459	678.1991	1.124	4.0869	0.53052	1.6667	-0.47965	3.5983	-0.0592	0.0182	-0.0073	-0.0462	0.0165	0.9585
13.0266	2.146	739.5093	45.293	-237.5837	-36.372	670.7327	1.0527	3.9493	0.51712	1.595	-0.43509	3.4535	-0.0592	0.0182	-0.0073	-0.0462	0.0165	0.9585
13.0386	5.1821	738.0391	43.6555	-237.2525	-33.531	664.0068	0.84425	3.6193	0.43968	1.4467	-0.30118	3.1584	-0.0592	0.0182	-0.0073	-0.0462	0.0165	0.9585
13.0507	8.4764	737.5247	42.4674	-237.188	-31.0021	658.1877	0.56684	2.9902	0.31804	1.1683	-0.10554	2.5663	-0.0592	0.0182	-0.0073	-0.0462	0.0165	0.9585
13.0628	11.8771	737.9143	41.8356	-237.369	-28.9322	653.2496	0.27677	1.9738	0.1633	0.71594	0.12676	1.5594	-0.0592	0.0182	-0.0073	-0.0462	0.0165	0.9585
13.0749	15.2458	739.002	41.7995	-237.7308	-27.4027	649.0274	0.025424	0.5141	-0.016119	0.061729	0.36799	0.059481	-0.0592	0.0182	-0.0073	-0.0462	0.0165	0.9585
13.0869	18.528	740.4957	42.3433	-238.1876	-26.4207	645.2529	-0.14003	-1.367	-0.21167	-0.78746	0.58903	-1.9182	-0.0592	0.0182	-0.0073	-0.0462	0.0165	0.9585
13.099	21.7251	742.1643	43.4012	-238.678	-25.9283	641.7106	-0.13991	-3.5239	-0.39874	-1.7656	0.7352	-4.2221	-0.0592	0.0182	-0.0073	-0.0462	0.0165	0.9585
13.1111	24.897	743.8588	44.8876	-239.1705	-25.8319	638.2371	0.099212	-5.6139	-0.54801	-2.7145	0.74101	-6.4787	-0.0592	0.0182	-0.0073	-0.0462	0.0165	0.9585
13.1231	28.1172	745.5412	46.7147	-239.6649	-26.0284	634.7632	0.69162	-7.0221	-0.60944	-3.351	0.50434	-8.0302	-0.0592	0.0182	-0.0073	-0.0462	0.0165	0.9585
13.1352	31.4718	747.2364	48.7736	-240.1818	-26.3965	631.2728	1.7262	-6.7624	-0.50955	-3.227	-0.10051	-7.7989	-0.0592	0.0182	-0.0073	-0.0462	0.0165	0.9585
13.1473	35.0313	749.0231	50.9284	-240.7597	-26.7973	627.8239	3.3097	-3.4721	-0.15472	-1.718	-1.2151	-4.3199	-0.0592	0.0182	-0.0073	-0.0462	0.0165	0.9585
13.1594	38.8583	750.989	53.0072	-241.4407	-27.0659	624.4988	5.4587	4.6178	0.57714	1.9778	-2.9693	4.3128	-0.0592	0.0182	-0.0073	-0.0462	0.0165	0.9585
13.1714	42.9932	753.174	54.8123	-242.25	-27.0276	621.3745	8.1032	19.5031	1.8083	8.7661	-5.4469	20.2254	-0.0592	0.0182	-0.0073	-0.0462	0.0165	0.9585
13.1835	47.4414	755.4608	56.1069	-243.1565	-26.4906	618.4174	10.9459	43.1321	3.6461	19.5281	-8.619	45.5156	-0.0592	0.0182	-0.0073	-0.0462	0.0165	0.9585
13.1956	52.1535	757.3769	56.6492	-244.0044	-25.2831	615.3267	13.4225	76.8051	6.1141	34.8535	-12.2454	81.5837	-0.0592	0.0182	-0.0073	-0.0462	0.0165	0.9585
13.2076	57.024	757.8678	56.1997	-244.44	-23.2584	611.3459	14.5648	120.3466	9.1124	54.6543	-15.7805	128.2737	-0.0592	0.0182	-0.0073	-0.0462	0.0165	0.9585
13.2197	61.8746	755.1797	54.5755	-243.8741	-20.349	605.1616	13.1137	170.9934	12.3283	77.6602	-18.3258	182.6515	-0.0592	0.0182	-0.0073	-0.0462	0.0165	0.9585
13.2318	66.409	747.1106	51.6458	-241.5649	-16.5694	595.09	8.0554	222.4512	15.0873	100.9935	-18.7437	238.0005	-0.0592	0.0182	-0.0073	-0.0462	0.0165	0.9585
13.2439	70.2088	731.403	47.3881	-236.7522	-12.0747	579.3858	0.5762	266.5089	16.1817	120.916	-16.3753	285.506	-0.0592	0.0182	-0.0073	-0.0462	0.0165	0.9585
13.2559	72.8023	706.4584	41.9286	-228.8911	-7.1519	556.8438	-6.9629	297.5952	15.3817	134.9136	-12.0777	318.9638	-0.0592	0.0182	-0.0073	-0.0462	0.0165	0.9585
13.268	73.9619	671.8233	35.5753	-217.8286	-2.1196	527.1906	-13.0194	315.2708	13.0446	142.7874	-6.9164	337.6517	-0.0592	0.0182	-0.0073	-0.0462	0.0165	0.9585
13.2801	73.6581	628.0654	28.7553	-203.7562	2.7069	490.9548	-17.0614	323.1468	10.0237	146.2003	-2.0197	345.3042	-0.0592	0.0182	-0.0073	-0.0462	0.0165	0.9585
13.2921	71.8877	576.4901	21.8585	-187.106	7.0667	449.1881	-19.1441	326.786	7.0125	147.6874	1.9331	347.8492	-0.0592	0.0182	-0.0073	-0.0462	0.0165	0.9585
13.3042	68.6135	518.895	15.2344	-168.4621	10.7232	403.2964	-19.8143	331.9325	4.4945	149.8629	4.6958	351.4119	-0.0592	0.0182	-0.0073	-0.0462	0.0165	0.9585
